<?xml version="1.0" encoding="UTF-8" standalone="no" ?>
<!DOCTYPE svg PUBLIC "-//W3C//DTD SVG 1.1//EN" "http://www.w3.org/Graphics/SVG/1.1/DTD/svg11.dtd">
<svg xmlns="http://www.w3.org/2000/svg" xmlns:xlink="http://www.w3.org/1999/xlink" version="1.1" width="320" height="320" viewBox="0 0 640 640" xml:space="preserve">
<desc>Created with Fabric.js 4.6.0</desc>
<defs>
</defs>
<g transform="matrix(1.11 0 0 0.18 357.88 390.14)" id="__k2HbRTDrhw7MGty0XES"  >
<filter id="SVGID_17" y="-22%" height="144%" x="-21%" width="142%" >
	<feGaussianBlur in="SourceAlpha" stdDeviation="0"></feGaussianBlur>
	<feOffset dx="-1" dy="4" result="oBlur" ></feOffset>
	<feFlood flood-color="rgb(48,122,142)" flood-opacity="0.5"/>
	<feComposite in2="oBlur" operator="in" />
	<feMerge>
		<feMergeNode></feMergeNode>
		<feMergeNode in="SourceGraphic"></feMergeNode>
	</feMerge>
</filter>
<path style="stroke: rgb(0,0,0); stroke-opacity: 0.04; stroke-width: 0; stroke-dasharray: none; stroke-linecap: butt; stroke-dashoffset: 0; stroke-linejoin: miter; stroke-miterlimit: 4; fill: rgb(69,161,186); fill-rule: nonzero; opacity: 1;filter: url(#SVGID_17);" vector-effect="non-scaling-stroke"  transform=" translate(0, 0)" d="M -83.10811 -39.75826 C -83.10811 -63.69972 -79.77288 -83.10811000000001 -75.65866 -83.10811000000001 L 75.65867 -83.10811000000001 L 75.65867 -83.10811000000001 C 79.77289 -83.10811000000001 83.10812 -63.69972000000001 83.10812 -39.75826000000001 L 83.10812 69.6117 L 83.10812 69.6117 C 83.10812 77.06556 82.06974 83.10812 80.78883 83.10812 L -79.36814 83.10812 L -79.36814 83.10812 C -81.43366999999999 83.10812 -83.10811 73.36421 -83.10811 61.3445 z" stroke-linecap="round" />
</g>
<g transform="matrix(-0.14 0.18 -1.12 -0.88 247.12 250.21)" id="KqTitWNKLEXq7vq2qdV0c"  >
<filter id="SVGID_18" y="-26%" height="152%" x="-21%" width="142%" >
	<feGaussianBlur in="SourceAlpha" stdDeviation="0"></feGaussianBlur>
	<feOffset dx="1.32" dy="6.58" result="oBlur" ></feOffset>
	<feFlood flood-color="rgb(78,174,200)" flood-opacity="1"/>
	<feComposite in2="oBlur" operator="in" />
	<feMerge>
		<feMergeNode></feMergeNode>
		<feMergeNode in="SourceGraphic"></feMergeNode>
	</feMerge>
</filter>
<path style="stroke: rgb(0,0,0); stroke-opacity: 0.04; stroke-width: 0; stroke-dasharray: none; stroke-linecap: butt; stroke-dashoffset: 0; stroke-linejoin: miter; stroke-miterlimit: 4; fill: rgb(69,161,186); fill-rule: nonzero; opacity: 1;filter: url(#SVGID_18);" vector-effect="non-scaling-stroke"  transform=" translate(0, 0)" d="M -54.63171 -49.19846 C -54.63171 -52.19916 -37.73849 -54.631699999999995 -16.899639999999998 -54.631699999999995 L 16.899630000000002 -54.631699999999995 L 16.899630000000002 -54.631699999999995 C 37.73848 -54.631699999999995 54.6317 -52.199149999999996 54.6317 -49.19846 L 54.6317 49.19847 L 54.6317 49.19847 C 54.6317 52.19917 37.73848 54.63171 16.899630000000002 54.63171 L -16.899639999999998 54.63171 L -16.899639999999998 54.63171 C -37.73849 54.63171 -54.63171 52.19916 -54.63171 49.19847 z" stroke-linecap="round" />
</g>
<g transform="matrix(-0.14 0.18 -1.12 -0.88 284.62 223.18)" id="0hOgo9N7o1Iu9rTSWjEpl"  >
<filter id="SVGID_19" y="-23%" height="146%" x="-20%" width="140%" >
	<feGaussianBlur in="SourceAlpha" stdDeviation="0"></feGaussianBlur>
	<feOffset dx="0.23" dy="3.15" result="oBlur" ></feOffset>
	<feFlood flood-color="rgb(78,174,200)" flood-opacity="1"/>
	<feComposite in2="oBlur" operator="in" />
	<feMerge>
		<feMergeNode></feMergeNode>
		<feMergeNode in="SourceGraphic"></feMergeNode>
	</feMerge>
</filter>
<path style="stroke: rgb(0,0,0); stroke-opacity: 0.04; stroke-width: 0; stroke-dasharray: none; stroke-linecap: butt; stroke-dashoffset: 0; stroke-linejoin: miter; stroke-miterlimit: 4; fill: rgb(69,161,186); fill-rule: nonzero; opacity: 1;filter: url(#SVGID_19);" vector-effect="non-scaling-stroke"  transform=" translate(0, 0)" d="M -54.63171 -49.20544 C -54.63171 -52.20228 -37.4145 -54.631710000000005 -16.175999999999995 -54.631710000000005 L 16.176000000000002 -54.631710000000005 L 16.176000000000002 -54.631710000000005 C 37.414500000000004 -54.631710000000005 54.631710000000005 -52.202290000000005 54.631710000000005 -49.20544 L 54.631710000000005 49.20544 L 54.631710000000005 49.20544 C 54.631710000000005 52.20228 37.414500000000004 54.631710000000005 16.176000000000002 54.631710000000005 L -16.175999999999995 54.631710000000005 L -16.175999999999995 54.631710000000005 C -37.41449999999999 54.631710000000005 -54.63171 52.202290000000005 -54.63171 49.20544 z" stroke-linecap="round" />
</g>
<g transform="matrix(1.69 0 0 1.47 354 295.1)" id="L9jJmQCLL1UCP_AVFtLhi"  >
<filter id="SVGID_20" y="-22%" height="144%" x="-22%" width="144%" >
	<feGaussianBlur in="SourceAlpha" stdDeviation="0"></feGaussianBlur>
	<feOffset dx="2" dy="-2" result="oBlur" ></feOffset>
	<feFlood flood-color="rgb(78,174,200)" flood-opacity="1"/>
	<feComposite in2="oBlur" operator="in" />
	<feMerge>
		<feMergeNode></feMergeNode>
		<feMergeNode in="SourceGraphic"></feMergeNode>
	</feMerge>
</filter>
<path style="stroke: rgb(0,0,0); stroke-opacity: 0.04; stroke-width: 0; stroke-dasharray: none; stroke-linecap: butt; stroke-dashoffset: 0; stroke-linejoin: miter; stroke-miterlimit: 4; fill: rgb(69,161,186); fill-rule: nonzero; opacity: 1;filter: url(#SVGID_20);" vector-effect="non-scaling-stroke"  transform=" translate(0, 0)" d="M -63.76812 35.21995 C -63.76812 -19.449650000000005 -24.36936 -63.768119999999996 24.231479999999998 -63.768119999999996 L 58.28078 -63.768119999999996 L 58.28078 -63.768119999999996 C 61.31135 -63.768119999999996 63.768119999999996 -61.00458 63.768119999999996 -57.59558 L 63.768119999999996 59.52673 L 63.768119999999996 59.52673 C 63.768119999999996 61.86919 62.07998 63.76813 59.99755 63.76813 L -54.77568 63.76813 L -54.77568 63.76813 C -59.74207 63.76813 -63.76813 59.23934 -63.76813 53.6528 z" stroke-linecap="round" />
</g>
</svg>