<?xml version="1.0" encoding="UTF-8" standalone="no" ?>
<!DOCTYPE svg PUBLIC "-//W3C//DTD SVG 1.1//EN" "http://www.w3.org/Graphics/SVG/1.1/DTD/svg11.dtd">
<svg xmlns="http://www.w3.org/2000/svg" xmlns:xlink="http://www.w3.org/1999/xlink" version="1.1" width="640" height="640" viewBox="0 0 640 640" xml:space="preserve">
<desc>Created with Fabric.js 4.6.0</desc>
<defs>
</defs>
<g transform="matrix(2.14 0 0 0.58 320 548.67)" id="Bv1NWWrclQ8SL5ZoKCdKE"  >
<filter id="SVGID_1580" y="-26%" height="152%" x="-20%" width="140%" >
	<feGaussianBlur in="SourceAlpha" stdDeviation="0"></feGaussianBlur>
	<feOffset dx="0" dy="15" result="oBlur" ></feOffset>
	<feFlood flood-color="rgb(161,159,123)" flood-opacity="1"/>
	<feComposite in2="oBlur" operator="in" />
	<feMerge>
		<feMergeNode></feMergeNode>
		<feMergeNode in="SourceGraphic"></feMergeNode>
	</feMerge>
</filter>
<path style="stroke: rgb(203,178,26); stroke-width: 0; stroke-dasharray: none; stroke-linecap: butt; stroke-dashoffset: 0; stroke-linejoin: miter; stroke-miterlimit: 4; fill: rgb(223,219,158); fill-rule: nonzero; opacity: 1;filter: url(#SVGID_1580);" vector-effect="non-scaling-stroke"  transform=" translate(0, 0)" d="M 0 -120.11331 C 66.30255 -120.11331 120.11331 -66.30255 120.11331 0 C 120.11331 66.30255 66.30255 120.11331 0 120.11331 C -66.30255 120.11331 -120.11331 66.30255 -120.11331 0 C -120.11331 -66.30255 -66.30255 -120.11331 0 -120.11331 z" stroke-linecap="round" />
</g>
<g transform="matrix(2.06 0 0 2.67 320 285.29)" id="1gP1EhyBhe50Txaqbh_K8"  >
<filter id="SVGID_1576" y="-22%" height="144%" x="-21%" width="142%" >
	<feGaussianBlur in="SourceAlpha" stdDeviation="0"></feGaussianBlur>
	<feOffset dx="1" dy="-4" result="oBlur" ></feOffset>
	<feFlood flood-color="rgb(230,227,167)" flood-opacity="1"/>
	<feComposite in2="oBlur" operator="in" />
	<feMerge>
		<feMergeNode></feMergeNode>
		<feMergeNode in="SourceGraphic"></feMergeNode>
	</feMerge>
</filter>
<path style="stroke: rgb(0,0,0); stroke-opacity: 0.04; stroke-width: 1; stroke-dasharray: none; stroke-linecap: butt; stroke-dashoffset: 0; stroke-linejoin: miter; stroke-miterlimit: 4; fill: rgb(223,219,158); fill-rule: nonzero; opacity: 1;filter: url(#SVGID_1576);" vector-effect="non-scaling-stroke"  transform=" translate(0, 0)" d="M -98.75722 -77.0689 C -98.75722 -89.04703 -86.16113 -98.75722 -70.62306000000001 -98.75722 L 70.50568999999999 -98.75722 L 70.50568999999999 -98.75722 C 86.10857999999999 -98.75722 98.75721999999999 -89.00652000000001 98.75721999999999 -76.97842 L 98.75721999999999 98.29592 L 98.75721999999999 98.29592 C 98.75721999999999 98.55068 98.48930999999999 98.75721 98.15883 98.75721 L -98.75722000000002 98.75721 z" stroke-linecap="round" />
</g>
</svg>