<?xml version="1.0" encoding="UTF-8" standalone="no" ?>
<!DOCTYPE svg PUBLIC "-//W3C//DTD SVG 1.1//EN" "http://www.w3.org/Graphics/SVG/1.1/DTD/svg11.dtd">
<svg xmlns="http://www.w3.org/2000/svg" xmlns:xlink="http://www.w3.org/1999/xlink" version="1.1" width="128" height="128" viewBox="0 0 640 640" xml:space="preserve">
<desc>Created with Fabric.js 4.6.0</desc>
<defs>
</defs>
<g transform="matrix(1 0 0 1 320 319.72)" id="4v8CkvHs2yJSoWQ3nSpZ2"  >
<g style="" vector-effect="non-scaling-stroke"   >
		<g transform="matrix(2.14 0 0 0.58 0 228.95)" id="Bv1NWWrclQ8SL5ZoKCdKE"  >
<filter id="SVGID_685" y="-26%" height="152%" x="-20%" width="140%" >
	<feGaussianBlur in="SourceAlpha" stdDeviation="0"></feGaussianBlur>
	<feOffset dx="0" dy="15" result="oBlur" ></feOffset>
	<feFlood flood-color="rgb(41,100,136)" flood-opacity="1"/>
	<feComposite in2="oBlur" operator="in" />
	<feMerge>
		<feMergeNode></feMergeNode>
		<feMergeNode in="SourceGraphic"></feMergeNode>
	</feMerge>
</filter>
<path style="stroke: rgb(203,178,26); stroke-width: 0; stroke-dasharray: none; stroke-linecap: butt; stroke-dashoffset: 0; stroke-linejoin: miter; stroke-miterlimit: 4; fill: rgb(61,151,175); fill-rule: nonzero; opacity: 1;filter: url(#SVGID_685);" vector-effect="non-scaling-stroke"  transform=" translate(0, 0)" d="M 0 -120.11331 C 66.30255 -120.11331 120.11331 -66.30255 120.11331 0 C 120.11331 66.30255 66.30255 120.11331 0 120.11331 C -66.30255 120.11331 -120.11331 66.30255 -120.11331 0 C -120.11331 -66.30255 -66.30255 -120.11331 0 -120.11331 z" stroke-linecap="round" />
</g>
		<g transform="matrix(2.06 0 0 2.67 0 -34.43)" id="1gP1EhyBhe50Txaqbh_K8"  >
<filter id="SVGID_686" y="-22%" height="144%" x="-21%" width="142%" >
	<feGaussianBlur in="SourceAlpha" stdDeviation="0"></feGaussianBlur>
	<feOffset dx="1" dy="-4" result="oBlur" ></feOffset>
	<feFlood flood-color="rgb(67,161,186)" flood-opacity="1"/>
	<feComposite in2="oBlur" operator="in" />
	<feMerge>
		<feMergeNode></feMergeNode>
		<feMergeNode in="SourceGraphic"></feMergeNode>
	</feMerge>
</filter>
<path style="stroke: rgb(0,0,0); stroke-opacity: 0.04; stroke-width: 1; stroke-dasharray: none; stroke-linecap: butt; stroke-dashoffset: 0; stroke-linejoin: miter; stroke-miterlimit: 4; fill: rgb(61,151,175); fill-rule: nonzero; opacity: 1;filter: url(#SVGID_686);" vector-effect="non-scaling-stroke"  transform=" translate(0, 0)" d="M -98.75722 -77.0689 C -98.75722 -89.04703 -86.16113 -98.75722 -70.62306000000001 -98.75722 L 70.50568999999999 -98.75722 L 70.50568999999999 -98.75722 C 86.10857999999999 -98.75722 98.75721999999999 -89.00652000000001 98.75721999999999 -76.97842 L 98.75721999999999 98.29592 L 98.75721999999999 98.29592 C 98.75721999999999 98.55068 98.48930999999999 98.75721 98.15883 98.75721 L -98.75722000000002 98.75721 z" stroke-linecap="round" />
</g>
</g>
</g>
<g transform="matrix(1.23 0 0 0.21 324.33 378.63)" id="_zUNqfwaFubnlRlhlRdct"  >
<filter id="SVGID_854" y="-22%" height="144%" x="-21%" width="142%" >
	<feGaussianBlur in="SourceAlpha" stdDeviation="0"></feGaussianBlur>
	<feOffset dx="-1" dy="4" result="oBlur" ></feOffset>
	<feFlood flood-color="rgb(48,122,142)" flood-opacity="0.5"/>
	<feComposite in2="oBlur" operator="in" />
	<feMerge>
		<feMergeNode></feMergeNode>
		<feMergeNode in="SourceGraphic"></feMergeNode>
	</feMerge>
</filter>
<path style="stroke: rgb(0,0,0); stroke-opacity: 0.04; stroke-width: 0; stroke-dasharray: none; stroke-linecap: butt; stroke-dashoffset: 0; stroke-linejoin: miter; stroke-miterlimit: 4; fill: rgb(69,161,186); fill-rule: nonzero; opacity: 1;filter: url(#SVGID_854);" vector-effect="non-scaling-stroke"  transform=" translate(0, 0)" d="M -83.10811 -39.75826 C -83.10811 -63.69972 -79.77288 -83.10811000000001 -75.65866 -83.10811000000001 L 75.65867 -83.10811000000001 L 75.65867 -83.10811000000001 C 79.77289 -83.10811000000001 83.10812 -63.69972000000001 83.10812 -39.75826000000001 L 83.10812 69.6117 L 83.10812 69.6117 C 83.10812 77.06556 82.06974 83.10812 80.78883 83.10812 L -79.36814 83.10812 L -79.36814 83.10812 C -81.43366999999999 83.10812 -83.10811 73.36421 -83.10811 61.3445 z" stroke-linecap="round" />
</g>
<g transform="matrix(-0.14 0.18 -1.28 -1 200.02 221.56)" id="reL4lKqNM1KnBsSorqrcN"  >
<filter id="SVGID_925" y="-24%" height="148%" x="-25%" width="150%" >
	<feGaussianBlur in="SourceAlpha" stdDeviation="0"></feGaussianBlur>
	<feOffset dx="-5.1" dy="-4.9" result="oBlur" ></feOffset>
	<feFlood flood-color="rgb(78,174,200)" flood-opacity="1"/>
	<feComposite in2="oBlur" operator="in" />
	<feMerge>
		<feMergeNode></feMergeNode>
		<feMergeNode in="SourceGraphic"></feMergeNode>
	</feMerge>
</filter>
<path style="stroke: rgb(0,0,0); stroke-opacity: 0.04; stroke-width: 0; stroke-dasharray: none; stroke-linecap: butt; stroke-dashoffset: 0; stroke-linejoin: miter; stroke-miterlimit: 4; fill: rgb(69,161,186); fill-rule: nonzero; opacity: 1;filter: url(#SVGID_925);" vector-effect="non-scaling-stroke"  transform=" translate(0, 0)" d="M -54.63171 -49.19846 C -54.63171 -52.19916 -37.73849 -54.631699999999995 -16.899639999999998 -54.631699999999995 L 16.899630000000002 -54.631699999999995 L 16.899630000000002 -54.631699999999995 C 37.73848 -54.631699999999995 54.6317 -52.199149999999996 54.6317 -49.19846 L 54.6317 49.19847 L 54.6317 49.19847 C 54.6317 52.19917 37.73848 54.63171 16.899630000000002 54.63171 L -16.899639999999998 54.63171 L -16.899639999999998 54.63171 C -37.73849 54.63171 -54.63171 52.19916 -54.63171 49.19847 z" stroke-linecap="round" />
</g>
<g transform="matrix(-0.14 0.18 -1.28 -1 242.09 191.18)" id="GOI4mz2oy9DSjxxPar6VD"  >
<filter id="SVGID_936" y="-22%" height="144%" x="-22%" width="144%" >
	<feGaussianBlur in="SourceAlpha" stdDeviation="0"></feGaussianBlur>
	<feOffset dx="-2.63" dy="-1.75" result="oBlur" ></feOffset>
	<feFlood flood-color="rgb(78,174,200)" flood-opacity="1"/>
	<feComposite in2="oBlur" operator="in" />
	<feMerge>
		<feMergeNode></feMergeNode>
		<feMergeNode in="SourceGraphic"></feMergeNode>
	</feMerge>
</filter>
<path style="stroke: rgb(0,0,0); stroke-opacity: 0.04; stroke-width: 0; stroke-dasharray: none; stroke-linecap: butt; stroke-dashoffset: 0; stroke-linejoin: miter; stroke-miterlimit: 4; fill: rgb(69,161,186); fill-rule: nonzero; opacity: 1;filter: url(#SVGID_936);" vector-effect="non-scaling-stroke"  transform=" translate(0, 0)" d="M -54.63171 -49.20544 C -54.63171 -52.20228 -37.4145 -54.631710000000005 -16.175999999999995 -54.631710000000005 L 16.176000000000002 -54.631710000000005 L 16.176000000000002 -54.631710000000005 C 37.414500000000004 -54.631710000000005 54.631710000000005 -52.202290000000005 54.631710000000005 -49.20544 L 54.631710000000005 49.20544 L 54.631710000000005 49.20544 C 54.631710000000005 52.20228 37.414500000000004 54.631710000000005 16.176000000000002 54.631710000000005 L -16.175999999999995 54.631710000000005 L -16.175999999999995 54.631710000000005 C -37.41449999999999 54.631710000000005 -54.63171 52.202290000000005 -54.63171 49.20544 z" stroke-linecap="round" />
</g>
<g transform="matrix(1.88 0 0 1.67 320 271.97)" id="182IG25cNlfkvZXkCX2RX"  >
<filter id="SVGID_887" y="-22%" height="144%" x="-22%" width="144%" >
	<feGaussianBlur in="SourceAlpha" stdDeviation="0"></feGaussianBlur>
	<feOffset dx="2" dy="-2" result="oBlur" ></feOffset>
	<feFlood flood-color="rgb(78,174,200)" flood-opacity="1"/>
	<feComposite in2="oBlur" operator="in" />
	<feMerge>
		<feMergeNode></feMergeNode>
		<feMergeNode in="SourceGraphic"></feMergeNode>
	</feMerge>
</filter>
<path style="stroke: rgb(0,0,0); stroke-opacity: 0.04; stroke-width: 0; stroke-dasharray: none; stroke-linecap: butt; stroke-dashoffset: 0; stroke-linejoin: miter; stroke-miterlimit: 4; fill: rgb(69,161,186); fill-rule: nonzero; opacity: 1;filter: url(#SVGID_887);" vector-effect="non-scaling-stroke"  transform=" translate(0, 0)" d="M -63.76812 35.21995 C -63.76812 -19.449650000000005 -24.36936 -63.768119999999996 24.231479999999998 -63.768119999999996 L 58.28078 -63.768119999999996 L 58.28078 -63.768119999999996 C 61.31135 -63.768119999999996 63.768119999999996 -61.00458 63.768119999999996 -57.59558 L 63.768119999999996 59.52673 L 63.768119999999996 59.52673 C 63.768119999999996 61.86919 62.07998 63.76813 59.99755 63.76813 L -54.77568 63.76813 L -54.77568 63.76813 C -59.74207 63.76813 -63.76813 59.23934 -63.76813 53.6528 z" stroke-linecap="round" />
</g>
</svg>